<?xml version="1.0" encoding="UTF-8"?>
<svg width="600px" height="350px" viewBox="0 0 600 350" version="1.1" xmlns="http://www.w3.org/2000/svg" xmlns:xlink="http://www.w3.org/1999/xlink">
    <!-- Generator: Sketch 49.3 (51167) - http://www.bohemiancoding.com/sketch -->
    <title>menus_logo</title>
    <desc>Created with Sketch.</desc>
    <defs>
        <path d="M160,320 C71.63444,320 0,248.36556 0,160 C0,71.63444 71.63444,0 160,0 C248.36556,0 320,71.63444 320,160 C320,248.36556 248.36556,320 160,320 Z M105.707865,76.5842697 C97.7648935,76.5842697 91.3258427,83.0233205 91.3258427,90.9662921 C91.3258427,98.9092638 97.7648935,105.348315 105.707865,105.348315 L214.651685,105.348315 C222.594657,105.348315 229.033708,98.9092638 229.033708,90.9662921 C229.033708,83.0233205 222.594657,76.5842697 214.651685,76.5842697 L105.707865,76.5842697 Z M105.707865,214.651685 C97.7648935,214.651685 91.3258427,221.090736 91.3258427,229.033708 C91.3258427,236.97668 97.7648935,243.41573 105.707865,243.41573 L214.651685,243.41573 C222.594657,243.41573 229.033708,236.97668 229.033708,229.033708 C229.033708,221.090736 222.594657,214.651685 214.651685,214.651685 L105.707865,214.651685 Z M76.5842697,145.617978 C68.641298,145.617978 62.2022472,152.057028 62.2022472,160 C62.2022472,167.942972 68.641298,174.382022 76.5842697,174.382022 L243.41573,174.382022 C251.358702,174.382022 257.797753,167.942972 257.797753,160 C257.797753,152.057028 251.358702,145.617978 243.41573,145.617978 L76.5842697,145.617978 Z" id="path-1"></path>
        <linearGradient x1="15.1610993%" y1="-1.43754868%" x2="70.209404%" y2="55.0142787%" id="linearGradient-3">
            <stop stop-color="#522958" offset="0%"></stop>
            <stop stop-color="#A05CBC" offset="100%"></stop>
        </linearGradient>
    </defs>
    <g id="menus_logo" stroke="none" stroke-width="1" fill="none" fill-rule="evenodd">
        <g id="Rectangle-2-Copy-3-+-Rectangle-2-Copy-5-+-Rectangle-2-Copy-4-Mask" transform="translate(140.000000, 15.000000)">
            <mask id="mask-2" fill="white">
                <use xlink:href="#path-1"></use>
            </mask>
            <use id="Combined-Shape" fill="#955BA7" xlink:href="#path-1"></use>
            <path d="M329.346461,248.729561 L373.333333,304.0664 L327.541147,325.098159 L350.852713,348.84482 L285.389147,456.205128 L94.0341085,237.887851 L121.616439,234.506046 L64,167.93281 L150.951299,163.314082 L93.8542636,99.416432 L226.04031,82.8717949 L341.68062,229.255867 L329.346461,248.729561 Z" id="Combined-Shape" fill="url(#linearGradient-3)" opacity="0.780910326" mask="url(#mask-2)"></path>
        </g>
    </g>
</svg>